# xmcd
#
# Track frame offsets:
#	150
#	21967
#	35364
#	49258
#	63970
#	76505
#	92656
#	106461
#	118798
#	136067
#
# Disc length: 2085 seconds
#
# Revision: 1
# Processed by: cddbd v1.5.2PL0 Copyright (c) Steve Scherf et al.
# Submitted via: audiograbber 1.83.01
#
DISCID=7708230a
DTITLE=David Arr - Live Storm
DYEAR=1999
DGENRE=Country
TTITLE0=Bring On The Storm
TTITLE1=Giddy Up Go
TTITLE2=Simple Kissin´
TTITLE3=A Penny For Your Thoughts
TTITLE4=My Ten Dollar Dog
TTITLE5=Two Lonely Hearts
TTITLE6=Loving You
TTITLE7=Ooga Chugga
TTITLE8=Hard Time On Easy Street
TTITLE9=Time Bandit
EXTD=
EXTT0=
EXTT1=
EXTT2=
EXTT3=
EXTT4=
EXTT5=
EXTT6=
EXTT7=
EXTT8=
EXTT9=
PLAYORDER=
